<?xml version="1.0" encoding="UTF-8" standalone="no"?>
<!-- Created with Inkscape (http://www.inkscape.org/) -->

<svg
   xmlns:dc="http://purl.org/dc/elements/1.1/"
   xmlns:cc="http://creativecommons.org/ns#"
   xmlns:rdf="http://www.w3.org/1999/02/22-rdf-syntax-ns#"
   xmlns:svg="http://www.w3.org/2000/svg"
   xmlns="http://www.w3.org/2000/svg"
   xmlns:sodipodi="http://sodipodi.sourceforge.net/DTD/sodipodi-0.dtd"
   xmlns:inkscape="http://www.inkscape.org/namespaces/inkscape"
   width="100mm"
   height="11.3mm"
   viewBox="0 0 100 11.3"
   version="1.1"
   id="svg8"
   inkscape:version="0.92.4 (5da689c313, 2019-01-14)"
   sodipodi:docname="logo_tulis.svg">
  <defs
     id="defs2" />
  <sodipodi:namedview
     id="base"
     pagecolor="#ffffff"
     bordercolor="#666666"
     borderopacity="1.0"
     inkscape:pageopacity="0.0"
     inkscape:pageshadow="2"
     inkscape:zoom="1.4"
     inkscape:cx="188.91322"
     inkscape:cy="35.43857"
     inkscape:document-units="mm"
     inkscape:current-layer="text16-3"
     showgrid="false"
     showguides="true"
     inkscape:guide-bbox="true"
     inkscape:window-width="1280"
     inkscape:window-height="737"
     inkscape:window-x="-8"
     inkscape:window-y="-8"
     inkscape:window-maximized="1" />
  <metadata
     id="metadata5">
    <rdf:RDF>
      <cc:Work
         rdf:about="">
        <dc:format>image/svg+xml</dc:format>
        <dc:type
           rdf:resource="http://purl.org/dc/dcmitype/StillImage" />
        <dc:title></dc:title>
      </cc:Work>
    </rdf:RDF>
  </metadata>
  <g
     inkscape:label="Layer 1"
     inkscape:groupmode="layer"
     id="layer1"
     transform="translate(0,-285.7)">
    <g
       aria-label="Persona Creative"
       inkscape:transform-center-x="-15.686012"
       inkscape:transform-center-y="3.2127976"
       style="font-style:normal;font-variant:normal;font-weight:normal;font-stretch:normal;font-size:10.58333302px;line-height:1.25;font-family:'Segoe UI';-inkscape-font-specification:'Segoe UI, Normal';font-variant-ligatures:normal;font-variant-caps:normal;font-variant-numeric:normal;font-feature-settings:normal;text-align:start;letter-spacing:0px;word-spacing:0px;writing-mode:lr-tb;text-anchor:start;fill:#000000;fill-opacity:1;stroke:none;stroke-width:0.26458332"
       id="text16-3">
      <g
         id="g893"
         transform="matrix(1.3362656,0,0,1.3362656,-2.0909466,283.01197)"
         style="fill:#ffffff">
        <path
           id="path847"
           style="font-style:normal;font-variant:normal;font-weight:normal;font-stretch:normal;font-size:10.58333302px;font-family:'Segoe UI';-inkscape-font-specification:'Segoe UI, Normal';font-variant-ligatures:normal;font-variant-caps:normal;font-variant-numeric:normal;font-feature-settings:normal;text-align:start;writing-mode:lr-tb;text-anchor:start;stroke-width:0.26458332;fill:#ffffff"
           d="M 2.6694573,7.1004961 V 9.9013586 H 1.8012933 V 2.4909584 h 2.0360514 q 1.1885579,0 1.8396809,0.5787761 0.6562907,0.578776 0.6562907,1.6329752 0,1.0541992 -0.7286377,1.7259928 -0.72347,0.6717936 -1.9585367,0.6717936 z m 0,-3.8240559 v 3.0385741 h 0.9095052 q 0.8991699,0 1.3694254,-0.4082438 0.4754232,-0.4134114 0.4754232,-1.1627197 0,-1.4676106 -1.7363281,-1.4676106 z"
           inkscape:connector-curvature="0" />
        <path
           id="path849"
           style="font-style:normal;font-variant:normal;font-weight:normal;font-stretch:normal;font-size:10.58333302px;font-family:'Segoe UI';-inkscape-font-specification:'Segoe UI, Normal';font-variant-ligatures:normal;font-variant-caps:normal;font-variant-numeric:normal;font-feature-settings:normal;text-align:start;writing-mode:lr-tb;text-anchor:start;stroke-width:0.26458332;fill:#ffffff"
           d="M 11.480289,7.4673987 H 7.7440828 q 0.020671,0.883667 0.4754232,1.3642578 0.4547526,0.4805908 1.2505696,0.4805908 0.8940024,0 1.6433104,-0.5891113 v 0.795817 q -0.697632,0.506429 -1.8448484,0.506429 -1.1213786,0 -1.7621663,-0.7183023 -0.6407878,-0.7234701 -0.6407878,-2.0308838 0,-1.2350667 0.6976318,-2.0102131 0.7027995,-0.7803141 1.7414958,-0.7803141 1.0386959,0 1.6071369,0.6717936 0.568441,0.6717936 0.568441,1.8655191 z M 10.612125,6.7490963 Q 10.606957,6.015291 10.255557,5.6070472 9.9093253,5.1988034 9.2892081,5.1988034 q -0.5994466,0 -1.0180257,0.4289144 -0.418579,0.4289144 -0.5167643,1.1213785 z"
           inkscape:connector-curvature="0" />
        <path
           id="path851"
           style="font-style:normal;font-variant:normal;font-weight:normal;font-stretch:normal;font-size:10.58333302px;font-family:'Segoe UI';-inkscape-font-specification:'Segoe UI, Normal';font-variant-ligatures:normal;font-variant-caps:normal;font-variant-numeric:normal;font-feature-settings:normal;text-align:start;writing-mode:lr-tb;text-anchor:start;stroke-width:0.26458332;fill:#ffffff"
           d="m 15.526553,5.4675208 q -0.222208,-0.1705322 -0.640787,-0.1705322 -0.542603,0 -0.909506,0.5115967 -0.361735,0.5115967 -0.361735,1.3952636 V 9.9013586 H 12.767032 V 4.6096921 h 0.847493 v 1.0903727 h 0.02067 q 0.180867,-0.5581055 0.552938,-0.8681641 0.37207,-0.3152262 0.83199,-0.3152262 0.330729,0 0.506429,0.072347 z"
           inkscape:connector-curvature="0" />
        <path
           id="path853"
           style="font-style:normal;font-variant:normal;font-weight:normal;font-stretch:normal;font-size:10.58333302px;font-family:'Segoe UI';-inkscape-font-specification:'Segoe UI, Normal';font-variant-ligatures:normal;font-variant-caps:normal;font-variant-numeric:normal;font-feature-settings:normal;text-align:start;writing-mode:lr-tb;text-anchor:start;stroke-width:0.26458332;fill:#ffffff"
           d="M 16.126,9.7101558 V 8.8006506 q 0.692465,0.5115967 1.524455,0.5115967 1.116211,0 1.116211,-0.7441406 0,-0.2118734 -0.09819,-0.3565674 Q 18.575463,8.0616777 18.410099,7.9479895 18.249902,7.8343014 18.027693,7.7464514 17.810652,7.6534339 17.557437,7.5552486 17.206038,7.4157223 16.93732,7.2761959 16.673771,7.1315019 16.492903,6.9558021 16.317203,6.7749345 16.224186,6.5475582 16.136336,6.320182 16.136336,6.015291 q 0,-0.3720703 0.170532,-0.6562907 0.170532,-0.289388 0.454752,-0.4805908 0.284221,-0.1963704 0.645956,-0.2945556 0.366902,-0.098185 0.754476,-0.098185 0.687296,0 1.229899,0.2377115 V 5.581209 q -0.583944,-0.3824056 -1.343587,-0.3824056 -0.237712,0 -0.428915,0.056844 -0.191203,0.051676 -0.330729,0.1498616 -0.134359,0.098185 -0.211873,0.2377116 -0.07235,0.1343587 -0.07235,0.2997233 0,0.2067057 0.07235,0.3462321 0.07751,0.1395264 0.222208,0.2480469 0.144694,0.1085205 0.3514,0.1963704 0.206706,0.08785 0.470256,0.1912028 0.351399,0.1343587 0.630452,0.2790527 0.279053,0.1395264 0.475423,0.3203939 0.196371,0.1756999 0.299723,0.4082438 0.108521,0.2325439 0.108521,0.5529378 0,0.3927409 -0.1757,0.6821289 -0.170532,0.289388 -0.45992,0.4805908 -0.289388,0.1912028 -0.666626,0.2842204 -0.377238,0.093018 -0.790649,0.093018 -0.816488,0 -1.415935,-0.3152262 z"
           inkscape:connector-curvature="0" />
        <path
           id="path855"
           style="font-style:normal;font-variant:normal;font-weight:normal;font-stretch:normal;font-size:10.58333302px;font-family:'Segoe UI';-inkscape-font-specification:'Segoe UI, Normal';font-variant-ligatures:normal;font-variant-caps:normal;font-variant-numeric:normal;font-feature-settings:normal;text-align:start;writing-mode:lr-tb;text-anchor:start;stroke-width:0.26458332;fill:#ffffff"
           d="m 23.143659,10.025382 q -1.173055,0 -1.875854,-0.7389729 -0.697632,-0.7441406 -0.697632,-1.968872 0,-1.3332519 0.728638,-2.0825602 0.728637,-0.7493082 1.968872,-0.7493082 1.18339,0 1.844848,0.7286376 0.666626,0.7286377 0.666626,2.0205485 0,1.2660725 -0.718302,2.0308837 -0.713135,0.7596435 -1.917196,0.7596435 z m 0.06201,-4.8265786 q -0.816488,0 -1.291911,0.5581055 -0.475423,0.5529378 -0.475423,1.5296223 0,0.940511 0.480591,1.4831136 0.480591,0.5426025 1.286743,0.5426025 0.821655,0 1.260905,-0.5322672 0.444417,-0.5322673 0.444417,-1.5141195 0,-0.9921874 -0.444417,-1.5296223 -0.43925,-0.5374349 -1.260905,-0.5374349 z"
           inkscape:connector-curvature="0" />
        <path
           id="path857"
           style="font-style:normal;font-variant:normal;font-weight:normal;font-stretch:normal;font-size:10.58333302px;font-family:'Segoe UI';-inkscape-font-specification:'Segoe UI, Normal';font-variant-ligatures:normal;font-variant-caps:normal;font-variant-numeric:normal;font-feature-settings:normal;text-align:start;writing-mode:lr-tb;text-anchor:start;stroke-width:0.26458332;fill:#ffffff"
           d="M 31.525576,9.9013586 H 30.678083 V 6.883455 q 0,-1.6846516 -1.229899,-1.6846516 -0.63562,0 -1.054199,0.4805908 -0.413412,0.4754232 -0.413412,1.2040608 V 9.9013586 H 27.13308 V 4.6096921 h 0.847493 v 0.8784993 h 0.02067 q 0.599446,-1.0025227 1.736328,-1.0025227 0.868164,0 1.328084,0.5632731 0.45992,0.5581054 0.45992,1.6174722 z"
           inkscape:connector-curvature="0" />
        <path
           id="path859"
           style="font-style:normal;font-variant:normal;font-weight:normal;font-stretch:normal;font-size:10.58333302px;font-family:'Segoe UI';-inkscape-font-specification:'Segoe UI, Normal';font-variant-ligatures:normal;font-variant-caps:normal;font-variant-numeric:normal;font-feature-settings:normal;text-align:start;writing-mode:lr-tb;text-anchor:start;stroke-width:0.26458332;fill:#ffffff"
           d="M 36.915429,9.9013586 H 36.067935 V 9.0745357 h -0.02067 q -0.552938,0.9508463 -1.627808,0.9508463 -0.790649,0 -1.240234,-0.4185791 -0.444417,-0.418579 -0.444417,-1.1110432 0,-1.4831136 1.746663,-1.7259928 l 1.586466,-0.2222087 q 0,-1.3487548 -1.090372,-1.3487548 -0.956014,0 -1.725993,0.651123 v -0.868164 q 0.780314,-0.4960937 1.79834,-0.4960937 1.865519,0 1.865519,1.9740396 z M 36.067935,7.2245195 34.791528,7.4002194 q -0.589112,0.082682 -0.888835,0.2945556 -0.299723,0.2067057 -0.299723,0.738973 0,0.3875732 0.273885,0.6356201 0.279053,0.2428792 0.738973,0.2428792 0.630452,0 1.038696,-0.4392497 0.413411,-0.4444173 0.413411,-1.1213785 z"
           inkscape:connector-curvature="0" />
        <path
           id="path861"
           style="font-style:normal;font-variant:normal;font-weight:300;font-stretch:normal;font-size:10.58333302px;font-family:'Segoe UI';-inkscape-font-specification:'Segoe UI, Light';font-variant-ligatures:normal;font-variant-caps:normal;font-variant-numeric:normal;font-feature-settings:normal;text-align:start;writing-mode:lr-tb;text-anchor:start;fill:#ffffff"
           d="m 46.434226,9.6584794 q -0.899169,0.3720706 -1.875854,0.3720706 -1.519287,0 -2.480469,-1.018026 -0.956014,-1.0231933 -0.956014,-2.6665038 0,-1.8035075 1.038697,-2.8887125 1.038696,-1.0903727 2.640665,-1.0903727 0.852661,0 1.632975,0.2738851 v 0.5426025 q -0.780314,-0.3513997 -1.64331,-0.3513997 -1.395264,0 -2.268595,0.9456787 -0.873332,0.9456786 -0.873332,2.5166421 0,1.5141195 0.831991,2.3926188 0.837158,0.8733317 2.118733,0.8733317 1.023193,0 1.834513,-0.3979086 z"
           inkscape:connector-curvature="0" />
        <path
           id="path863"
           style="font-style:normal;font-variant:normal;font-weight:300;font-stretch:normal;font-size:10.58333302px;font-family:'Segoe UI';-inkscape-font-specification:'Segoe UI, Light';font-variant-ligatures:normal;font-variant-caps:normal;font-variant-numeric:normal;font-feature-settings:normal;text-align:start;writing-mode:lr-tb;text-anchor:start;fill:#ffffff"
           d="m 50.475324,5.1057858 q -0.237712,-0.1705322 -0.558106,-0.1705322 -0.625285,0 -1.049031,0.6459554 Q 48.44444,6.2271644 48.44444,7.4157223 V 9.9013586 H 47.979352 V 4.6096921 h 0.465088 v 1.173055 h 0.02067 q 0.180868,-0.6046143 0.573609,-0.9405111 0.392741,-0.3358968 0.909505,-0.3358968 0.294556,0 0.5271,0.093018 z"
           inkscape:connector-curvature="0" />
        <path
           id="path865"
           style="font-style:normal;font-variant:normal;font-weight:300;font-stretch:normal;font-size:10.58333302px;font-family:'Segoe UI';-inkscape-font-specification:'Segoe UI, Light';font-variant-ligatures:normal;font-variant-caps:normal;font-variant-numeric:normal;font-feature-settings:normal;text-align:start;writing-mode:lr-tb;text-anchor:start;fill:#ffffff"
           d="m 51.379661,7.2761959 q 0,1.0903727 0.501262,1.7053222 0.506429,0.6149496 1.384928,0.6149496 0.888835,0 1.736328,-0.6562907 v 0.506429 q -0.821655,0.583944 -1.834513,0.583944 -1.023194,0 -1.653646,-0.7338056 -0.630453,-0.7338054 -0.630453,-2.0722249 0,-1.1575521 0.656291,-1.9482014 0.661458,-0.7958171 1.715658,-0.7958171 0.987019,0 1.514119,0.6924642 0.5271,0.6924642 0.5271,1.8913574 v 0.2118733 z m 3.42098,-0.434082 Q 54.769635,5.9274411 54.361391,5.4210121 53.953147,4.914583 53.234845,4.914583 q -0.744141,0 -1.235067,0.5012614 -0.485758,0.4960938 -0.599446,1.4262695 z"
           inkscape:connector-curvature="0" />
        <path
           id="path867"
           style="font-style:normal;font-variant:normal;font-weight:300;font-stretch:normal;font-size:10.58333302px;font-family:'Segoe UI';-inkscape-font-specification:'Segoe UI, Light';font-variant-ligatures:normal;font-variant-caps:normal;font-variant-numeric:normal;font-feature-settings:normal;text-align:start;writing-mode:lr-tb;text-anchor:start;fill:#ffffff"
           d="M 59.78225,9.9013586 V 8.8419918 h -0.02067 q -0.253215,0.5426025 -0.738973,0.868164 -0.480591,0.3203942 -1.069702,0.3203942 -0.754476,0 -1.193726,-0.4237471 -0.43925,-0.4237467 -0.43925,-1.0697021 0,-1.3849283 1.834514,-1.6743163 L 59.78225,6.6199053 q 0,-1.7053223 -1.281575,-1.7053223 -0.873332,0 -1.700155,0.7027995 V 5.0437741 q 0.294556,-0.2325439 0.795817,-0.3979085 0.506429,-0.1653646 0.950847,-0.1653646 0.816487,0 1.260904,0.506429 0.449585,0.5064291 0.449585,1.4727783 v 3.4416503 z m -1.457275,-2.635498 q -0.831991,0.1188558 -1.167887,0.3875733 -0.335897,0.2635498 -0.335897,0.8629964 0,0.4702555 0.310058,0.7751464 0.315227,0.304891 0.873332,0.304891 0.764811,0 1.27124,-0.5632731 0.506429,-0.5684408 0.506429,-1.462443 V 7.0539873 Z"
           inkscape:connector-curvature="0" />
        <path
           id="path869"
           style="font-style:normal;font-variant:normal;font-weight:300;font-stretch:normal;font-size:10.58333302px;font-family:'Segoe UI';-inkscape-font-specification:'Segoe UI, Light';font-variant-ligatures:normal;font-variant-caps:normal;font-variant-numeric:normal;font-feature-settings:normal;text-align:start;writing-mode:lr-tb;text-anchor:start;fill:#ffffff"
           d="m 63.942201,9.8290116 q -0.372071,0.1756994 -0.697632,0.1756994 -1.173055,0 -1.173055,-1.4055985 V 5.0437741 h -0.950847 v -0.434082 h 0.950847 V 3.235099 q 0.113688,-0.041341 0.237711,-0.082682 0.124024,-0.036173 0.237712,-0.077515 v 1.53479 h 1.395264 v 0.434082 h -1.395264 v 3.4933267 q 0,0.5477702 0.170532,0.7958171 0.1757,0.2428792 0.589111,0.2428792 0.294556,0 0.635621,-0.1912028 z"
           inkscape:connector-curvature="0" />
        <path
           id="path871"
           style="font-style:normal;font-variant:normal;font-weight:300;font-stretch:normal;font-size:10.58333302px;font-family:'Segoe UI';-inkscape-font-specification:'Segoe UI, Light';font-variant-ligatures:normal;font-variant-caps:normal;font-variant-numeric:normal;font-feature-settings:normal;text-align:start;writing-mode:lr-tb;text-anchor:start;fill:#ffffff"
           d="m 65.223779,3.2764402 q -0.15503,0 -0.273885,-0.1136882 -0.118856,-0.1136881 -0.118856,-0.289388 0,-0.1705322 0.118856,-0.2738851 0.124023,-0.1085205 0.273885,-0.1085205 0.160197,0 0.279052,0.1033529 0.124024,0.1033529 0.124024,0.2790527 0,0.1653646 -0.118856,0.2842204 -0.118856,0.1188558 -0.28422,0.1188558 z M 64.991235,9.9013586 V 4.6096921 h 0.475423 v 5.2916665 z"
           inkscape:connector-curvature="0" />
        <path
           id="path873"
           style="font-style:normal;font-variant:normal;font-weight:300;font-stretch:normal;font-size:10.58333302px;font-family:'Segoe UI';-inkscape-font-specification:'Segoe UI, Light';font-variant-ligatures:normal;font-variant-caps:normal;font-variant-numeric:normal;font-feature-settings:normal;text-align:start;writing-mode:lr-tb;text-anchor:start;fill:#ffffff"
           d="M 68.897973,9.9013586 H 68.463891 L 66.417504,4.6096921 h 0.532268 l 1.576131,4.2116291 Q 68.639591,9.1262121 68.6861,9.374259 h 0.02067 q 0.06718,-0.3255615 0.149862,-0.5322672 l 1.627807,-4.2322997 h 0.516765 z"
           inkscape:connector-curvature="0" />
        <path
           id="path875"
           style="font-style:normal;font-variant:normal;font-weight:300;font-stretch:normal;font-size:10.58333302px;font-family:'Segoe UI';-inkscape-font-specification:'Segoe UI, Light';font-variant-ligatures:normal;font-variant-caps:normal;font-variant-numeric:normal;font-feature-settings:normal;text-align:start;writing-mode:lr-tb;text-anchor:start;fill:#ffffff"
           d="m 72.070903,7.2761959 q 0,1.0903727 0.501262,1.7053222 0.506429,0.6149496 1.384928,0.6149496 0.888835,0 1.736328,-0.6562907 v 0.506429 q -0.821655,0.583944 -1.834513,0.583944 -1.023193,0 -1.653646,-0.7338056 Q 71.57481,8.562939 71.57481,7.2245195 q 0,-1.1575521 0.65629,-1.9482014 0.661459,-0.7958171 1.715658,-0.7958171 0.98702,0 1.514119,0.6924642 0.5271,0.6924642 0.5271,1.8913574 v 0.2118733 z m 3.42098,-0.434082 Q 75.460877,5.9274411 75.052633,5.4210121 74.64439,4.914583 73.926087,4.914583 q -0.74414,0 -1.235066,0.5012614 -0.485759,0.4960938 -0.599447,1.4262695 z"
           inkscape:connector-curvature="0" />
      </g>
    </g>
  </g>
</svg>
